HIERARCHY
ROOT Hips
{
	OFFSET 0.000000 0.000000 0.000000
	CHANNELS 6 Xposition Yposition Zposition Zrotation Yrotation Xrotation 
	JOINT LHipJoint
	{
		OFFSET 0.000000 0.000000 0.000000
		CHANNELS 3 Zrotation Yrotation Xrotation
		JOINT LeftUpLeg
		{
			OFFSET 1.363060 -1.794630 0.839290
			CHANNELS 3 Zrotation Yrotation Xrotation
			JOINT LeftLeg
			{
				OFFSET 2.448110 -6.726130 0.000000
				CHANNELS 3 Zrotation Yrotation Xrotation
				JOINT LeftFoot
				{
					OFFSET 2.562200 -7.039590 0.000000
					CHANNELS 3 Zrotation Yrotation Xrotation
					JOINT LeftToeBase
					{
						OFFSET 0.157640 -0.433110 2.322550
						CHANNELS 3 Zrotation Yrotation Xrotation
						End Site
						{
							OFFSET 0.000000 0.000000 0.000000
						}
					}
				}
			}
		}
	}
	JOINT RHipJoint
	{
		OFFSET 0.000000 0.000000 0.000000
		CHANNELS 3 Zrotation Yrotation Xrotation
		JOINT RightUpLeg
		{
			OFFSET -1.305520 -1.794630 0.839290
			CHANNELS 3 Zrotation Yrotation Xrotation
			JOINT RightLeg
			{
				OFFSET -2.542530 -6.985550 0.000000
				CHANNELS 3 Zrotation Yrotation Xrotation
				JOINT RightFoot
				{
					OFFSET -2.568260 -7.056230 0.000000
					CHANNELS 3 Zrotation Yrotation Xrotation
					JOINT RightToeBase
					{
						OFFSET -0.164730 -0.452590 2.363150
						CHANNELS 3 Zrotation Yrotation Xrotation
						End Site
						{
							OFFSET 0.000000 0.000000 0.000000
						}
					}
				}
			}
		}
	}
}
MOTION
Frames: 19
Frame Time: 0.008333
-8.222089 16.533343 -3.270246 31.028301 84.627917 48.234656 -9.839902 -1.044269 1.382692 -6.540861 0.292939 -45.714703 -1.733875 0.969816 21.678416 0.724621 4.437445 9.835794 1.643600 -0.000000 -37.497700 10.357239 -2.619130 -1.560639 4.410328 -0.683773 -9.610276 0.534973 -3.271563 44.515893 0.710931 9.673354 1.638366 1.320300 0.000000 -82.126700
-8.030733 16.515688 -3.251379 33.067100 84.121240 50.095554 -9.711802 -0.982118 1.168442 -7.236534 0.552258 -45.883298 -1.707558 1.123080 24.021242 0.790000 4.825659 8.925225 1.678000 -0.000000 -36.415299 10.698969 -2.556917 -1.575116 3.739468 -0.923857 -11.144188 0.114967 -3.498079 48.027513 0.453892 7.865908 3.051131 1.306700 0.000000 -81.881000
-7.846013 16.505083 -3.232085 34.054543 83.546138 50.911236 -9.594594 -0.911846 0.947450 -7.891193 0.881028 -45.893176 -1.700709 1.251631 26.067960 0.858026 5.219716 7.737696 1.679301 -0.000000 -36.065800 11.000642 -2.440910 -1.589942 3.158427 -1.050959 -12.694962 -0.283827 -3.687893 51.414013 0.151172 5.661956 4.179213 1.107500 0.000000 -80.508300
-7.667672 16.501797 -3.213067 34.275190 82.926446 50.965050 -9.494362 -0.838649 0.723649 -8.482322 1.253217 -45.726679 -1.710342 1.354207 27.790840 0.929857 5.624399 6.367355 1.650000 -0.000001 -36.354600 11.258669 -2.283558 -1.607884 2.674249 -1.086431 -14.243808 -0.647896 -3.848374 54.620939 -0.186425 3.161762 4.946182 0.734700 -0.000000 -78.081201
-7.495241 16.505852 -3.195348 33.847416 82.283735 50.376215 -9.420366 -0.767490 0.502780 -8.974547 1.656722 -45.387261 -1.731148 1.432149 29.182537 1.005451 6.033500 4.916666 1.592700 -0.000000 -37.143200 11.464883 -2.097396 -1.629588 2.313194 -1.042326 -15.776858 -0.969519 -3.983987 57.595375 -0.545106 0.489265 5.311027 0.235900 0.000001 -74.845600
-7.328027 16.517043 -3.179159 32.960196 81.631307 49.337348 -9.372383 -0.699458 0.290357 -9.357422 2.069463 -44.880364 -1.758506 1.485687 30.237564 1.084480 6.450974 3.492960 1.517300 0.000000 -38.247700 11.622893 -1.892966 -1.655452 2.073913 -0.942336 -17.291771 -1.245072 -4.099648 60.297490 -0.906705 -2.197279 5.259301 -0.312700 0.000000 -71.017700
-7.165046 16.535010 -3.164927 31.679914 80.984949 47.924311 -9.354256 -0.636625 0.093328 -9.610529 2.482356 -44.236637 -1.786706 1.518127 30.975221 1.164532 6.867737 2.188818 1.433300 0.000000 -39.469900 11.730080 -1.680376 -1.682773 1.974995 -0.797256 -18.793183 -1.474125 -4.196168 62.691579 -1.251917 -4.741989 4.816585 -0.828300 -0.000000 -66.880100
-7.005819 16.559094 -3.151428 30.261784 80.347501 46.390331 -9.354064 -0.574707 -0.086725 -9.765655 2.869367 -43.460254 -1.812818 1.529359 31.402620 1.243910 7.294062 1.091091 1.357300 0.000000 -40.654600 11.803437 -1.465177 -1.711250 1.974471 -0.638312 -20.283997 -1.657387 -4.278459 64.757919 -1.559733 -6.982807 4.030913 -1.234500 0.000000 -62.675300
-6.849175 16.588673 -3.138947 28.665585 79.739282 44.712802 -9.377969 -0.516732 -0.243154 -9.801903 3.238620 -42.614009 -1.832207 1.526195 31.574440 1.317506 7.702314 0.241973 1.295900 0.000000 -41.640400 11.835384 -1.255097 -1.734354 2.105810 -0.462145 -21.779247 -1.796242 -4.342655 66.478001 -1.813511 -8.806653 2.986613 -1.488301 -0.000000 -58.641200
-6.694579 16.622981 -3.126167 27.043917 79.168643 43.047002 -9.417662 -0.460090 -0.376062 -9.749225 3.582885 -41.725155 -1.844140 1.511271 31.526306 1.381833 8.082940 -0.331094 1.258900 -0.000000 -42.355600 11.836511 -1.053305 -1.749293 2.340696 -0.285745 -23.285659 -1.891522 -4.390357 67.846731 -1.998643 -10.120166 1.774734 -1.575800 0.000000 -54.960500
-6.541561 16.661298 -3.111952 25.489145 78.646553 41.489179 -9.468104 -0.403696 -0.486681 -9.632038 3.905452 -40.828161 -1.849343 1.488202 31.303134 1.433171 8.416524 -0.631623 1.250001 0.000000 -42.785200 11.812619 -0.862061 -1.752610 2.660453 -0.117227 -24.809028 -1.944119 -4.422027 68.863689 -2.106206 -10.877465 0.495447 -1.516800 0.000000 -51.789600
-6.389929 16.702886 -3.095169 24.082353 78.183182 40.120853 -9.524655 -0.346596 -0.578420 -9.477629 4.214001 -39.950645 -1.850311 1.460129 30.948007 1.468472 8.682217 -0.686648 1.267600 0.000000 -42.969601 11.768886 -0.682190 -1.741723 3.041881 0.037808 -26.349460 -1.955369 -4.438487 69.531640 -2.133506 -11.077837 -0.751833 -1.353900 0.000000 -49.268300
-6.239659 16.747089 -3.074720 22.888955 77.785986 39.004481 -9.583237 -0.288220 -0.656477 -9.312796 4.518904 -39.112033 -1.850777 1.429551 30.498674 1.485648 8.860747 -0.539934 1.305200 -0.000000 -42.988600 11.709647 -0.513035 -1.715029 3.459895 0.177951 -27.901579 -1.927746 -4.440681 69.855349 -2.084966 -10.766301 -1.876640 -1.139499 0.000000 -47.521900
-6.090927 16.793304 -3.049792 21.953594 77.459660 38.178697 -9.640767 -0.228234 -0.727031 -9.160664 4.831421 -38.321570 -1.854722 1.398296 29.985962 1.483864 8.938359 -0.243102 1.353300 0.000000 -42.943100 11.638108 -0.352838 -1.672001 3.890792 0.305215 -29.454243 -1.865046 -4.429315 69.839936 -1.972305 -10.030409 -2.807356 -0.920500 0.000000 -46.639200
-5.943868 16.841090 -3.019834 21.307383 77.203742 37.667183 -9.694564 -0.166348 -0.796277 -9.040345 5.159299 -37.577392 -1.865801 1.367149 29.428750 1.463673 8.910144 0.153764 1.402000 0.000000 -42.935500 11.556933 -0.198941 -1.613777 4.311619 0.422535 -30.990953 -1.772143 -4.404899 69.491197 -1.813320 -8.990391 -3.503429 -0.728300 0.000000 -46.622600
-5.798968 16.889682 -2.984800 20.933915 77.016743 37.442157 -9.744310 -0.103347 -0.870525 -8.957609 5.516777 -36.875890 -1.886334 1.337466 28.849663 1.426120 8.773436 0.601780 1.440600 0.000000 -43.045500 11.466391 -0.049879 -1.541052 4.713747 0.540725 -32.490769 -1.654195 -4.367520 68.820805 -1.629970 -7.788624 -3.971527 -0.574900 -0.000001 -47.347400
-5.656194 16.938854 -2.944792 20.835865 76.888935 37.498462 -9.788405 -0.038896 -0.953753 -8.920333 5.900601 -36.197263 -1.917475 1.308229 28.244769 1.374789 8.546371 1.071198 1.465300 -0.000000 -43.334800 11.367629 0.097222 -1.457706 5.080919 0.662472 -33.931571 -1.515815 -4.317121 67.836947 -1.444736 -6.569018 -4.250694 -0.459400 -0.000000 -48.545300
-5.515608 16.988008 -2.900307 20.976991 76.810442 37.791193 -9.827178 0.026476 -1.048809 -8.924356 6.311977 -35.524948 -1.958698 1.279053 27.615342 1.313341 8.248183 1.539872 1.474000 -0.000000 -43.823900 11.259936 0.242844 -1.366091 5.410767 0.796535 -35.290109 -1.360391 -4.253300 66.552547 -1.277902 -5.463497 -4.415382 -0.375200 0.000000 -49.883300
-5.377161 17.036658 -2.852071 21.316751 76.769122 38.272834 -9.861269 0.092443 -1.156460 -8.962624 6.746032 -34.841119 -2.008330 1.249069 26.955528 1.246191 7.905329 1.997991 1.468900 0.000001 -44.498200 11.142185 0.386916 -1.268353 5.702113 0.950194 -36.544792 -1.190007 -4.175087 64.978240 -1.145298 -4.576362 -4.550516 -0.316300 0.000000 -51.043600
